<svg xmlns="http://www.w3.org/2000/svg" version="1.0" width="437" height="350" preserveAspectRatio="xMidYMid meet" style=""><rect id="backgroundrect" width="100%" height="100%" x="0" y="0" fill="none" stroke="none"/>


<g class="currentLayer" style=""><title>Layer 1</title><rect fill="#ffffff" stroke="#222222" stroke-width="2" stroke-linejoin="round" stroke-dashoffset="" fill-rule="nonzero" id="svg_12" x="154.91304453238263" y="9.919892241388911" width="127.56521268118141" height="145.64532671042699" style="color: rgb(255, 255, 255);" class=""/><g transform="translate(0,350) scale(0.10000000149011612,-0.10000000149011612) " fill="#e94b38" stroke="none" id="svg_1" class="" fill-opacity="1">
<path d="M1442 3485 c-64 -28 -62 -8 -62 -795 0 -791 -2 -768 64 -795 53 -22 1439 -22 1492 0 66 27 64 4 64 795 0 791 2 768 -64 795 -52 22 -1444 22 -1494 0z m917 -184 c164 -66 279 -212 304 -384 9 -63 8 -89 -6 -152 -31 -142 -111 -299 -248 -486 -80 -109 -200 -247 -214 -248 -11 -1 -112 109 -189 203 -161 201 -263 410 -281 576 -24 223 128 441 352 506 70 20 214 12 282 -15z" id="svg_2" fill="#e94b38"/>
<path d="M2082 2967 l-112 -112 0 -143 0 -142 80 0 79 0 3 78 3 77 60 0 60 0 3 -77 3 -78 79 0 80 0 -1 148 0 147 -113 107 -112 107 -112 -112z" id="svg_3" fill="#e94b38"/>
<path d="M2140 1235 l0 -205 50 0 50 0 0 110 c0 61 4 110 8 110 4 0 26 -36 47 -80 36 -74 41 -80 70 -80 28 1 33 7 70 83 l40 82 3 -112 3 -113 55 0 54 0 -2 203 -3 202 -65 0 -65 0 -46 -89 -47 -90 -46 92 -46 92 -65 0 -65 0 0 -205z" id="svg_4" fill="#e94b38"/>
<path d="M2947 1434 c-4 -4 -7 -29 -7 -56 l0 -48 -48 0 -48 0 -24 -75 c-13 -41 -26 -75 -30 -75 -4 0 -17 34 -30 75 l-24 75 -53 0 c-29 0 -53 -4 -53 -10 0 -5 23 -70 51 -144 28 -75 49 -142 46 -151 -4 -9 -18 -15 -35 -15 -21 0 -32 -7 -40 -25 -18 -40 -15 -52 19 -64 45 -16 69 -14 106 8 27 17 40 42 95 183 l63 163 3 -123 3 -122 54 0 55 0 0 75 0 75 65 0 65 0 0 -75 0 -75 55 0 55 0 0 43 1 42 20 -28 c56 -75 168 -82 244 -16 l35 31 0 -36 0 -36 50 0 50 0 0 89 c0 91 11 121 45 121 34 0 45 -30 45 -121 l0 -89 50 0 49 0 3 96 c2 79 6 99 21 108 12 8 22 8 35 0 13 -9 18 -30 22 -105 l5 -94 48 -3 47 -3 0 37 0 38 28 -26 c65 -61 156 -70 228 -23 l27 17 -29 29 c-27 27 -32 28 -61 17 -35 -13 -83 -3 -91 20 -3 9 21 12 97 12 l101 0 0 35 c0 45 -20 85 -59 118 -59 49 -153 43 -210 -14 l-30 -30 -16 30 c-26 51 -103 62 -163 24 -21 -13 -26 -13 -40 0 -29 25 -78 30 -114 12 -21 -10 -34 -12 -36 -5 -2 5 -26 10 -53 10 l-49 0 0 -37 0 -37 -34 33 c-65 63 -168 61 -233 -4 l-32 -32 -3 91 -3 91 -50 0 -50 0 -3 -72 -3 -73 -64 0 -64 0 -3 73 -3 72 -45 3 c-25 2 -49 0 -53 -4z m1291 -196 c21 -21 13 -28 -33 -28 -25 0 -45 4 -45 8 0 15 24 32 45 32 12 0 26 -5 33 -12z m-758 -18 c26 -26 25 -55 -1 -81 -26 -26 -57 -21 -82 12 -16 23 -17 30 -7 50 24 44 58 51 90 19z" id="svg_5" fill="#e94b38"/>
<path d="M1497 1244 c-4 -4 -7 -111 -8 -238 0 -183 -3 -227 -12 -212 -59 92 -130 146 -222 171 -135 37 -289 -5 -374 -101 l-39 -45 -17 58 c-42 146 -142 250 -291 304 -52 20 -85 23 -291 27 l-232 4 -6 -23 c-3 -13 -4 -222 -3 -464 l3 -440 210 -3 c226 -3 284 4 372 45 63 29 147 103 184 161 l27 43 25 -55 c71 -154 246 -240 422 -207 97 17 215 81 215 115 0 12 -124 126 -137 126 -4 0 -30 -11 -57 -25 -57 -29 -104 -32 -152 -9 -32 15 -64 48 -64 66 0 5 99 8 220 8 l220 0 0 -135 0 -135 115 0 115 0 -2 483 -3 482 -106 3 c-58 1 -108 -1 -112 -4z m-1054 -287 c165 -70 193 -300 48 -402 -39 -28 -50 -30 -142 -33 l-99 -4 0 226 0 226 80 0 c45 0 95 -6 113 -13z m783 -211 c19 -19 34 -39 34 -45 0 -7 -37 -11 -111 -11 l-110 0 18 31 c39 67 115 79 169 25z" id="svg_6" fill="#e94b38"/>
<path d="M1815 1192 c-47 -30 -66 -57 -72 -100 -16 -120 91 -202 201 -154 46 21 68 50 80 109 9 41 -22 115 -59 139 -40 26 -114 29 -150 6z" id="svg_7" fill="#e94b38"/>
<path d="M2863 974 c-7 -3 -29 -22 -50 -43 -50 -50 -97 -59 -158 -32 -32 14 -45 26 -45 40 0 19 -6 21 -70 21 l-69 0 -58 -180 c-31 -99 -59 -177 -62 -174 -3 3 -31 83 -61 177 l-56 172 -107 3 c-103 3 -110 1 -138 -22 -44 -37 -96 -50 -146 -37 -22 6 -46 18 -53 26 -7 8 -16 15 -21 15 -10 0 -13 -619 -3 -644 5 -13 25 -16 120 -16 l114 0 2 223 3 222 25 3 c24 2 29 -8 110 -220 l85 -223 124 0 125 0 38 100 c21 55 43 111 49 125 12 25 12 25 25 -15 32 -91 136 -187 234 -216 70 -20 162 -22 230 -5 76 19 174 76 178 103 2 14 -17 38 -62 76 -35 32 -68 57 -73 57 -4 0 -30 -11 -57 -25 -53 -27 -104 -32 -139 -14 -27 14 -77 60 -77 71 0 4 99 8 220 8 l219 0 3 -132 3 -133 109 -3 c81 -2 112 1 118 10 4 7 8 84 8 171 0 124 3 165 16 188 19 37 83 68 140 69 l40 0 83 -216 c78 -205 81 -217 66 -240 -19 -29 -52 -38 -89 -25 -15 6 -31 11 -37 11 -13 0 -91 -160 -85 -176 8 -20 75 -51 143 -64 51 -10 69 -10 115 4 64 18 130 72 159 129 30 57 309 783 309 802 0 13 -18 15 -127 13 l-126 -3 -58 -180 c-42 -133 -59 -175 -65 -160 -4 11 -31 92 -59 180 l-51 160 -145 0 c-141 0 -147 -1 -186 -27 l-41 -27 -6 30 -5 29 -116 0 -115 0 0 -87 -1 -88 -19 25 c-68 86 -86 102 -144 130 -51 25 -80 33 -142 36 -44 2 -84 1 -91 -2z m117 -210 c15 -9 35 -30 44 -45 l17 -29 -110 0 c-74 0 -111 4 -111 11 0 6 15 26 34 45 39 39 80 45 126 18z" id="svg_8" fill="#e94b38"/>
</g></g></svg>